Coordinates
version=1
nRows=13
nColumns=34
inDegrees=yes

Units are S.I. units (second, meters, Newtons, ...)
If the header above contains a line with 'inDegrees', this indicates whether rotational values are in degrees (yes) or radians (no).

endheader
time	pelvis_tilt	pelvis_list	pelvis_rotation	pelvis_tx	pelvis_ty	pelvis_tz	hip_flexion_r	hip_adduction_r	hip_rotation_r	knee_angle_r	ankle_angle_r	subtalar_angle_r	mtp_angle_r	hip_flexion_l	hip_adduction_l	hip_rotation_l	knee_angle_l	ankle_angle_l	subtalar_angle_l	mtp_angle_l	lumbar_extension	lumbar_bending	lumbar_rotation	arm_flex_r	arm_add_r	arm_rot_r	elbow_flex_r	pro_sup_r	arm_flex_l	arm_add_l	arm_rot_l	elbow_flex_l	pro_sup_l
      9.71666670	      1.67510530	    -17.08261814	    -52.39878262	      4.12491995	      0.97930407	      1.41612538	    -20.00963981	      0.49217157	     -5.76336006	     15.87969440	     21.09598211	      2.27050443	      0.00000000	    -15.18458402	     11.84370392	     -0.00183632	      1.95673331	     19.10873748	      2.41533905	      0.00000000	      2.05399535	      5.50171992	    -28.99587583	      1.99868420	     -0.81504072	     30.22662535	     93.89723846	    119.74817918	      3.08448538	    -15.16318348	     26.34630000	    103.76171743	    119.74817918
      9.73333330	      1.87405536	    -16.88938970	    -52.44926677	      4.12409527	      0.97939541	      1.41744574	    -19.85395690	      0.29033042	     -5.62283649	     16.17130192	     21.10473028	      1.69625627	      0.00000000	    -15.00356546	     12.21100772	     -0.67084042	      2.11914676	     18.07940405	      1.57952771	      0.00000000	      2.09459368	      5.07549179	    -28.92157277	      1.82970359	     -0.71293522	     30.27455207	     94.22316544	    119.74817918	      3.10736124	    -15.30126797	     25.88161337	    104.14477376	    119.74817918
      9.75000000	      2.04349768	    -16.84659808	    -52.70849748	      4.12139072	      0.97935519	      1.41753210	    -19.71728542	      0.49642716	     -3.51376384	     16.28181551	     20.72457433	     -1.42641588	      0.00000000	    -15.29716578	     12.57918773	      2.72077004	      1.15465531	     14.56997536	     -4.62723628	      0.00000000	      1.74973694	      4.73800193	    -28.44227743	      2.09216670	     -0.37842195	     30.44941215	     93.79223643	    119.74817918	      3.38697840	    -15.39792502	     25.21815103	    104.13801003	    119.74817918
      9.76666670	      2.00772016	    -16.89866305	    -52.59189299	      4.11989990	      0.97925893	      1.41702759	    -19.68607700	      0.69059684	     -4.01901095	     16.18720867	     20.53620213	     -1.57584809	      0.00000000	    -15.08933490	     12.51654907	      2.56358316	      1.27914633	     13.92533108	     -5.08609913	      0.00000000	      1.54490634	      4.69600290	    -28.31547406	      2.31201904	     -0.36697055	     30.50520699	     93.70857265	    119.74817918	      3.84665936	    -15.45783233	     24.82856173	    104.20816454	    119.74817918
      9.78333330	      2.09984896	    -16.93063293	    -52.40031773	      4.11837760	      0.97908055	      1.41789029	    -19.84644669	      0.90305391	     -4.11972010	     16.01424218	     20.38311921	     -1.95036642	      0.00000000	    -15.69524699	     12.52347885	      7.27498583	      0.17054303	     10.95347651	    -11.78899438	      0.00000000	      1.41739181	      4.52671940	    -28.53202951	      2.47419180	     -0.25306092	     31.14186860	     93.46583440	    119.74817918	      3.74339650	    -15.91487620	     24.34204725	    104.50823745	    119.74817918
      9.80000000	      2.20433447	    -16.79520289	    -52.46932245	      4.11724548	      0.97910283	      1.41929394	    -20.02042038	      0.87824511	     -4.22043362	     15.58558953	     20.43012273	     -1.94568412	      0.00000000	    -15.44660871	     12.67190149	      7.16191025	      0.53065645	     10.74016158	    -12.23233730	      0.00000000	      1.54158870	      4.30908293	    -28.26737780	      2.29024125	     -0.41780053	     31.70541519	     93.72431751	    119.74817918	      4.05869838	    -16.33950125	     24.40912176	    104.62919128	    119.74817918
      9.81666670	      2.21715340	    -16.73592436	    -52.73517698	      4.11646274	      0.97882698	      1.42036194	    -20.10564219	      0.78306108	     -4.58488748	     15.33185181	     20.65919630	     -1.28012035	      0.00000000	    -15.49517428	     12.77965181	      9.07227645	      0.29145980	      9.09757062	    -15.87906924	      0.00000000	      1.53783769	      4.34905050	    -27.55371100	      2.24761337	     -0.70913848	     31.82893908	     93.67841004	    119.74817918	      4.68497526	    -16.34120782	     24.30591183	    104.52870157	    119.74817918
      9.83333330	      2.29503664	    -16.56667171	    -52.85981901	      4.11627934	      0.97832551	      1.42178506	    -20.29172152	      0.63746797	     -4.93265645	     14.81261322	     20.50813514	     -1.31295502	      0.00000000	    -15.37001750	     12.97149154	      9.07923457	      0.44678818	      9.18697802	    -16.07481144	      0.00000000	      1.69565701	      4.21470955	    -27.04631233	      2.17742261	     -0.95197039	     32.03166805	     93.39855877	    119.74817918	      5.06668856	    -16.20599126	     24.01487230	    104.75740848	    119.74817918
      9.85000000	      2.45261016	    -16.40816004	    -52.94997703	      4.11621364	      0.97800961	      1.42349432	    -20.51076207	      0.32854045	     -5.22968075	     14.32643988	     19.82239879	     -0.78069664	      0.00000000	    -15.16587775	     13.24320446	      9.01194944	      0.90503638	      9.19784534	    -16.63881042	      0.00000000	      1.88764306	      3.97127283	    -26.59760419	      2.17717511	     -1.38493152	     32.65910167	     93.08366311	    119.74817918	      5.46116044	    -16.23987997	     24.13535297	    104.94551258	    119.74817918
      9.86666670	      2.54492106	    -16.48669236	    -53.16723527	      4.11582749	      0.97794465	      1.42500242	    -20.88032604	      0.04152482	     -5.89092900	     13.79850498	     19.71020220	     -0.47753665	      0.00000000	    -15.09603020	     13.32782097	      9.08953002	      1.38497732	      9.52631901	    -17.37212856	      0.00000000	      1.89825207	      3.99117819	    -25.94083723	      2.04878599	     -1.71951380	     32.97708397	     92.60779995	    119.74817918	      5.96071804	    -16.29435638	     24.50128406	    105.31676615	    119.74817918
      9.88333330	      2.72551737	    -16.74455108	    -53.14518192	      4.11564915	      0.97791543	      1.42592517	    -21.22175929	     -0.27346886	     -7.78614503	     13.71317541	     20.37389042	      1.71831103	      0.00000000	    -15.44236370	     13.33298144	     10.24692450	      1.47407494	      8.90201635	    -19.34834472	      0.00000000	      1.54912424	      4.01072225	    -25.21789305	      1.69052338	     -1.90356030	     32.84367797	     92.47847698	    119.74817918	      6.96320006	    -16.10023800	     24.98483239	    105.25267672	    119.74817918
      9.90000000	      2.76038812	    -16.65542405	    -53.10370549	      4.11565175	      0.97791912	      1.42744742	    -21.43914202	     -0.24511337	     -7.27004509	     13.26746156	     21.36694083	      1.99330541	      0.00000000	    -15.32469885	     13.37326572	     10.43350942	      1.77622819	      9.05750921	    -19.55156749	      0.00000000	      1.70368808	      3.88668047	    -24.97788272	      1.62807871	     -2.23740914	     33.50836323	     92.05996130	    119.74817918	      7.41291827	    -15.97369337	     25.14834707	    105.37970319	    119.74817918
      9.91666670	      2.72984444	    -16.61821621	    -53.02895717	      4.11618369	      0.97790286	      1.42882292	    -21.59982339	     -0.14780352	     -7.06227115	     12.97916878	     22.42111093	      2.00734135	      0.00000000	    -15.36366392	     13.34020731	     10.56595547	      1.81464470	      9.15863643	    -19.63673654	      0.00000000	      1.86762826	      4.01402851	    -24.72745248	      1.47841647	     -2.57075633	     33.88202108	     91.84664735	    119.74817918	      7.95555853	    -15.64096575	     25.18168952	    105.57220282	    119.74817918
